<?xml version="1.0" standalone="no"?><!DOCTYPE svg PUBLIC "-//W3C//DTD SVG 1.1//EN" "http://www.w3.org/Graphics/SVG/1.1/DTD/svg11.dtd"><svg t="1541332252450" class="icon" style="" viewBox="0 0 1024 1024" version="1.1" xmlns="http://www.w3.org/2000/svg" p-id="34244" xmlns:xlink="http://www.w3.org/1999/xlink" width="200" height="200"><defs><style type="text/css"></style></defs><path d="M854.112 147.537H491.87c-55.484 0-100.626 45.47-100.626 101.374l-0.02 100.226H250.383c-28.687 0-63.278 17.443-80.511 40.558l-72.425 97.309c-16.071 21.557-28.183 58.158-28.183 85.126v141.916c0 33.531 27.073 60.831 60.379 60.831h31.101c13.468-0.14 24.56-14.56 24.56-28.807 0-15.341-12.821-26.329-25.513-26.329l-25.129 0.086c-8.175 0.02-10.706-4.528-10.811-13.105v-108.56c2.188 1.318 4.459 2.221 6.837 2.221l159.409-0.157c33.231 0.157 47.884-18.641 47.764-48.231l0.123-80.807c0-31.984-11.994-48.526-47.884-48.526l-76.086 0.086c1.547-1.946 2.481-3.142 2.481-3.142 6.735-8.716 18.31-15.326 34.084-15.326h140.524c0.033 0 0.069-0.02 0.103-0.02l-0.103 296.134c0 9.963 9.441 18.553 22.512 20.341-10.777 1.962-23.619 8.677-24.125 25.582-0.575 19.7 16.384 28.548 27.491 28.548H600.98c9.058 0 28.672-6.56 28.482-27.301-0.207-20.879-18.171-27.559-27.197-27.559h-174.77c11.437-2.741 18.726-10.585 18.726-19.593l-0.103-451.915c0.157-22.512 16.66-45.836 45.732-45.836h363.284c25.634 0 44.948 24.086 44.948 50.298v432.113c0 14.752-22.301 34.799-34.001 35.441-11.092 0.608-31.829 3.366-31.744 27.559 0.086 23.116 22.491 26.779 33.601 26.779 43.578 0 86.796-33.201 86.796-100.278V248.896c0-55.903-45.142-101.374-100.626-101.374M283.202 477.775v67.495H130.125c-1.282 0-2.567 0.26-3.803 0.642 1.39-6.3 3.383-12.496 6.959-17.634 7.099-10.241 22.369-30.355 37.904-50.503 0.277 0.02 0.522 0.123 0.816 0.123l111.196-0.123z m3.995 188.795c-57.378 0-104.043 47.034-104.043 104.825s46.67 104.813 104.043 104.813c57.378 0 104.062-47.015 104.062-104.813S344.575 666.57 287.197 666.57m0 154.497c-26.203-0.103-49.012-22.945-49.34-50.174-0.311-26.816 21.07-49.635 49.585-49.413 31.031 0.277 49.34 22.77 49.305 49.916-0.033 26.902-21.382 49.74-49.55 49.669m444.261-154.238c-57.378 0-104.043 47.015-104.043 104.813s46.67 104.825 104.043 104.825c57.395 0 104.062-47.034 104.062-104.825s-46.684-104.813-104.062-104.813m0 154.463c-26.203-0.069-48.994-22.93-49.326-50.174-0.33-26.816 21.07-49.62 49.568-49.394 31.031 0.277 49.34 22.77 49.305 49.898-0.033 26.938-21.366 49.74-49.55 49.669M592.511 470.781c0 15.238 9.164 27.282 25.844 27.282h95.09c20.1 0 27.301-8.313 27.301-27.508l-0.157-153.077c0.157-16.835-11.365-29.157-27.355-29.157-17.372 0-27.666 12.181-27.403 29.157l0.241 125.461-67.861 0.103c-18.467-0.103-25.707 13.52-25.707 27.732z" p-id="34245" fill="#e98f36"></path></svg>