<?xml version="1.0" standalone="no"?><!DOCTYPE svg PUBLIC "-//W3C//DTD SVG 1.1//EN" "http://www.w3.org/Graphics/SVG/1.1/DTD/svg11.dtd"><svg t="1541345119940" class="icon" style="" viewBox="0 0 1024 1024" version="1.1" xmlns="http://www.w3.org/2000/svg" p-id="3459" xmlns:xlink="http://www.w3.org/1999/xlink" width="200" height="200"><defs><style type="text/css"></style></defs><path d="M724.992 883.712h55.296V506.88l-18.944 7.168-14.848 211.456-21.504 8.192v150.016zM972.8 139.264l-73.216 139.776-73.216 139.776-59.904-94.72-37.376 24.576-22.528 328.192-87.04 34.304L454.656 558.08l-91.648 192.512-90.624 5.12-55.296-88.064-130.048 40.448-30.208-98.816 167.936-51.712 37.888-11.776 20.992 33.792 26.112 41.984L391.168 450.56l30.208-64 51.712 48.128 137.216 127.488 16.896-245.76 1.536-25.6L650.24 276.48l60.416-39.936-53.76-84.48 157.696-6.656 158.208-6.144zM241.152 883.712h55.296v-67.584l-46.592 2.56-8.704-13.824v78.848z m-97.28 0h55.296v-145.408l-1.024-1.536-54.272 16.896v130.048z m194.048 0h55.296v-79.36l-3.072 6.144-52.224 3.072v70.144z m96.768 0h55.296v-216.064l-22.016-20.48-33.28 69.632v166.912z m96.768 0h55.296V757.76l-55.296-51.2v177.152z m96.768 0h55.296v-133.12l-55.296 22.016v111.104z" fill="#1296db" p-id="3460"></path></svg>